<?xml version="1.0" encoding="UTF-8"?>
<svg width="23px" height="26px" viewBox="0 0 23 26" version="1.1" xmlns="http://www.w3.org/2000/svg" xmlns:xlink="http://www.w3.org/1999/xlink">
    <!-- Generator: Sketch 64 (93537) - https://sketch.com -->
    <title>Slice 10</title>
    <desc>Created with Sketch.</desc>
    <g id="Slice" stroke="none" stroke-width="1" fill="none" fill-rule="evenodd">
        <g id="切圖" transform="translate(-521.000000, -31.000000)" fill="#F2E205" fill-rule="nonzero">
            <g id="Group-10" transform="translate(521.000000, 31.000000)">
                <g id="Slice-10" transform="translate(0.585851, 0.000000)">
                    <path d="M11,12 C12.6485271,12 14.0760216,11.4087238 15.242382,10.2421363 C16.4087425,9.07573888 17,7.64857933 17,5.99980995 C17,4.35161077 16.4087425,2.92426112 15.242192,1.75748362 C14.0756414,0.591276265 12.648337,0 11,0 C9.35128288,0 7.92416849,0.591276265 6.75780803,1.75767367 C5.59144758,2.92407108 5,4.35142072 5,5.99980995 C5,7.64857933 5.59144758,9.07592892 6.75799808,10.2423263 C7.92454862,11.4085337 9.351853,12 11,12 Z" id="Path"></path>
                    <path d="M21.9466869,20.1897137 C21.9110778,19.6997196 21.8390548,19.1652155 21.7330322,18.6007822 C21.6260037,18.0321281 21.4881943,17.4945543 21.3232255,17.0032173 C21.1528248,16.4953808 20.9210637,15.9938755 20.6345813,15.5132822 C20.337235,15.0144628 19.987984,14.5801063 19.5960825,14.222683 C19.1862758,13.8487603 18.6845291,13.5481257 18.1043218,13.3288371 C17.5261262,13.1106995 16.8853632,13.0001918 16.1999378,13.0001918 C15.930757,13.0001918 15.6704282,13.1055195 15.1676756,13.4176653 C14.8582585,13.6100945 14.496333,13.8326446 14.0923606,14.0787928 C13.746932,14.2886807 13.2789839,14.4853306 12.7009895,14.6633707 C12.1370777,14.8373819 11.5645153,14.9256346 10.9993964,14.9256346 C10.4342777,14.9256346 9.86191636,14.8373819 9.29740114,14.6633707 C8.72001025,14.4855224 8.25206209,14.2888725 7.90703589,14.0789847 C7.50688588,13.8351387 7.1447592,13.6125885 6.83071492,13.4174734 C6.32856594,13.1053277 6.0680359,13 5.7988551,13 C5.1132286,13 4.47266676,13.1106995 3.89467237,13.3290289 C3.3148673,13.5479339 2.81291954,13.8485685 2.40271048,14.2228749 C2.01101012,14.58049 1.66155789,15.0146547 1.36461402,15.5132822 C1.07833276,15.9938755 0.846571686,16.4951889 0.675969787,17.0034091 C0.511202139,17.4947462 0.373392835,18.0321281 0.266364285,18.6007822 C0.16034163,19.1644481 0.0883186844,19.6991441 0.0527095746,20.1902893 C0.0177039706,20.6714581 0,21.170853 0,21.6752362 C0,22.9878985 0.437569741,24.0505756 1.30043711,24.8342975 C2.15264188,25.6076594 3.28026409,26 4.65151708,26 L17.3484829,26 C18.7197359,26 19.8469558,25.6078512 20.6993617,24.8342975 C21.5624303,24.0511511 22,22.9882822 22,21.6750443 C22,21.1683589 21.9818937,20.6685803 21.9466869,20.1897137 L21.9466869,20.1897137 Z" id="Path"></path>
                </g>
            </g>
        </g>
    </g>
</svg>