<?xml version="1.0" encoding="UTF-8"?>
<svg width="24px" height="26px" viewBox="0 0 24 26" version="1.1" xmlns="http://www.w3.org/2000/svg" xmlns:xlink="http://www.w3.org/1999/xlink">
    <!-- Generator: Sketch 64 (93537) - https://sketch.com -->
    <title>Slice 8</title>
    <desc>Created with Sketch.</desc>
    <g id="Slice" stroke="none" stroke-width="1" fill="none" fill-rule="evenodd">
        <g id="切圖" transform="translate(-445.000000, -31.000000)" fill="#FFFFFF" fill-rule="nonzero">
            <g id="Group-8" transform="translate(442.000000, 31.000000)">
                <g id="Graphics-/-Tab-Bar-Icons-/-White-/-Account">
                    <path d="M15,12 C16.6485271,12 18.0760216,11.4087238 19.242382,10.2421363 C20.4087425,9.07573888 21,7.64857933 21,5.99980995 C21,4.35161077 20.4087425,2.92426112 19.242192,1.75748362 C18.0756414,0.591276265 16.648337,0 15,0 C13.3512829,0 11.9241685,0.591276265 10.757808,1.75767367 C9.59144758,2.92407108 9,4.35142072 9,5.99980995 C9,7.64857933 9.59144758,9.07592892 10.7579981,10.2423263 C11.9245486,11.4085337 13.351853,12 15,12 Z" id="Path"></path>
                    <path d="M25.9466869,20.1897137 C25.9110778,19.6997196 25.8390548,19.1652155 25.7330322,18.6007822 C25.6260037,18.0321281 25.4881943,17.4945543 25.3232255,17.0032173 C25.1528248,16.4953808 24.9210637,15.9938755 24.6345813,15.5132822 C24.337235,15.0144628 23.987984,14.5801063 23.5960825,14.222683 C23.1862758,13.8487603 22.6845291,13.5481257 22.1043218,13.3288371 C21.5261262,13.1106995 20.8853632,13.0001918 20.1999378,13.0001918 C19.930757,13.0001918 19.6704282,13.1055195 19.1676756,13.4176653 C18.8582585,13.6100945 18.496333,13.8326446 18.0923606,14.0787928 C17.746932,14.2886807 17.2789839,14.4853306 16.7009895,14.6633707 C16.1370777,14.8373819 15.5645153,14.9256346 14.9993964,14.9256346 C14.4342777,14.9256346 13.8619164,14.8373819 13.2974011,14.6633707 C12.7200103,14.4855224 12.2520621,14.2888725 11.9070359,14.0789847 C11.5068859,13.8351387 11.1447592,13.6125885 10.8307149,13.4174734 C10.3285659,13.1053277 10.0680359,13 9.7988551,13 C9.1132286,13 8.47266676,13.1106995 7.89467237,13.3290289 C7.3148673,13.5479339 6.81291954,13.8485685 6.40271048,14.2228749 C6.01101012,14.58049 5.66155789,15.0146547 5.36461402,15.5132822 C5.07833276,15.9938755 4.84657169,16.4951889 4.67596979,17.0034091 C4.51120214,17.4947462 4.37339283,18.0321281 4.26636429,18.6007822 C4.16034163,19.1644481 4.08831868,19.6991441 4.05270957,20.1902893 C4.01770397,20.6714581 4,21.170853 4,21.6752362 C4,22.9878985 4.43756974,24.0505756 5.30043711,24.8342975 C6.15264188,25.6076594 7.28026409,26 8.65151708,26 L21.3484829,26 C22.7197359,26 23.8469558,25.6078512 24.6993617,24.8342975 C25.5624303,24.0511511 26,22.9882822 26,21.6750443 C26,21.1683589 25.9818937,20.6685803 25.9466869,20.1897137 L25.9466869,20.1897137 Z" id="Path"></path>
                </g>
            </g>
        </g>
    </g>
</svg>