<?xml version="1.0" standalone="no"?><!DOCTYPE svg PUBLIC "-//W3C//DTD SVG 1.1//EN" "http://www.w3.org/Graphics/SVG/1.1/DTD/svg11.dtd"><svg t="1588389660039" class="icon" viewBox="0 0 1024 1024" version="1.1" xmlns="http://www.w3.org/2000/svg" p-id="928" xmlns:xlink="http://www.w3.org/1999/xlink" width="200" height="200"><defs><style type="text/css">@font-face { font-family: element-icons; src: url("chrome-extension://moombeodfomdpjnpocobemoiaemednkg/fonts/element-icons.woff") format("woff"), url("chrome-extension://moombeodfomdpjnpocobemoiaemednkg/fonts/element-icons.ttf ") format("truetype"); }
</style></defs><path d="M825.2 454.2l-268-276.20000001c-11.6-12-27.4-18.00000001-44.8-17.99999999l-0.8 0c-17.4 0-33.2 6-44.8 17.99999999l-268 276.20000001c-25 24-25 62.6 0 86.4 25 23.8 65.4 23.8 90.4 0l158.8-166 0 428c0 33.79999999 28.6 61.2 64 61.2 36 0 64-27.4 64-61.2l0-428 158.8 166c25 23.8 65.4 23.8 90.4 0s25-62.40000001 0-86.4z" p-id="929"></path></svg>