<svg xmlns="http://www.w3.org/2000/svg" width="31" height="23" viewBox="0 0 31 23">
    <path fill="#767676" fill-rule="evenodd" d="M19.505 0c.55 0 1.27.353 1.609.789L23.657 4.5h5.345C30.105 4.5 31 5.392 31 6.497v14.506C31 22.106 30.106 23 29.002 23H1.998C.895 23 0 22.108 0 21.003V6.497C0 5.394.894 4.5 1.998 4.5h5.345L9.886.789C10.226.353 10.95 0 11.496 0zM15.5 6.5c-3.866 0-7 3.134-7 7s3.134 7 7 7 7-3.134 7-7-3.134-7-7-7zm0 1.5c3.038 0 5.5 2.462 5.5 5.5S18.538 19 15.5 19 10 16.538 10 13.5 12.462 8 15.5 8zM24 6c-.552 0-1 .448-1 1s.448 1 1 1 1-.448 1-1-.448-1-1-1zM5 1c.553 0 1 .444 1 1v1H2V2c0-.552.443-1 1-1h2z"/>
</svg>
