<?xml version="1.0" encoding="UTF-8"?>
<svg width="10px" height="10px" viewBox="0 0 10 10" version="1.1" xmlns="http://www.w3.org/2000/svg" xmlns:xlink="http://www.w3.org/1999/xlink">
    <!-- Generator: Sketch 64 (93537) - https://sketch.com -->
    <title>Slice 23</title>
    <desc>Created with Sketch.</desc>
    <g id="Slice" stroke="none" stroke-width="1" fill="none" fill-rule="evenodd">
        <g id="切圖" transform="translate(-294.000000, -159.000000)">
            <g id="Group-23" transform="translate(294.000000, 159.000000)">
                <g id="Slice-23">
                    <circle id="Oval" fill="#FFFFFF" cx="5" cy="5" r="5"></circle>
                    <path d="M5,2 C5.18,2 5.3,2.12 5.3,2.3 L5.3,4.7 L7.7,4.7 C7.88,4.7 8,4.82 8,5 C8,5.18 7.88,5.3 7.7,5.3 L5.3,5.3 L5.3,7.7 C5.3,7.88 5.18,8 5,8 C4.82,8 4.7,7.88 4.7,7.7 L4.7,5.3 L2.3,5.3 C2.12,5.3 2,5.18 2,5 C2,4.82 2.12,4.7 2.3,4.7 L4.7,4.7 L4.7,2.3 C4.7,2.12 4.82,2 5,2 Z" id="Path" fill="#505F74" fill-rule="nonzero" transform="translate(5.000000, 5.000000) rotate(45.000000) translate(-5.000000, -5.000000) "></path>
                </g>
            </g>
        </g>
    </g>
</svg>