<?xml version="1.0" encoding="UTF-8"?>
<svg width="80px" height="80px" viewBox="0 0 80 80" version="1.1" xmlns="http://www.w3.org/2000/svg" xmlns:xlink="http://www.w3.org/1999/xlink">
    <title>Shape</title>
    <defs>
        <linearGradient x1="50%" y1="0%" x2="50%" y2="100%" id="linearGradient-1">
            <stop stop-color="#6DD400" offset="0%"></stop>
            <stop stop-color="#F7B500" offset="100%"></stop>
        </linearGradient>
    </defs>
    <g id="Slice" stroke="none" stroke-width="1" fill="none" fill-rule="evenodd">
        <g id="切圖" transform="translate(-190.000000, -187.000000)" fill="url(#linearGradient-1)" fill-rule="nonzero">
            <g id="Group-34" transform="translate(190.000000, 187.000000)">
                <path d="M61.9614815,0 L18.0385185,0 C8.09185185,0 0,8.09185185 0,18.0385185 L0,61.9614815 C0,71.9081481 8.09185185,80 18.0385185,80 L61.9614815,80 C71.9081481,80 80,71.9081481 80,61.9614815 L80,18.0385185 C80,8.09185185 71.9081481,0 61.9614815,0 Z M77.037037,61.9614815 C77.037037,70.2740741 70.2755556,77.037037 61.9614815,77.037037 L18.0385185,77.037037 C9.72444444,77.037037 2.96296296,70.2740741 2.96296296,61.9614815 L2.96296296,18.0385185 C2.96296296,9.72592593 9.72444444,2.96296296 18.0385185,2.96296296 L61.9614815,2.96296296 C70.2755556,2.96296296 77.037037,9.72592593 77.037037,18.0385185 L77.037037,61.9614815 Z M25.5392593,17.7777778 L13.3333333,59.2592593 L17.9555556,59.2592593 L21.8666667,45.8666667 L34.1925926,45.8666667 L38.2814815,59.2592593 L43.0814815,59.2592593 L30.4592593,17.7777778 L25.5392593,17.7777778 Z M22.9925926,41.4814815 L27.9703704,24.6518519 L33.1244444,41.4814815 L22.9925926,41.4814815 Z M62.162963,49.0074074 C62.162963,53.5911111 59.9303704,55.8814815 55.4651852,55.8814815 C50.8814815,55.8814815 48.5911111,53.6103704 48.5911111,49.0666667 L48.5911111,29.5703704 L44.3244444,29.5703704 L44.3244444,49.0666667 C44.3244444,56.2962963 48.037037,59.9111111 55.4651852,59.9111111 C58.3481481,59.9111111 60.64,58.9614815 62.3407407,57.0651852 L62.3407407,59.2592593 L66.4296296,59.2592593 L66.4296296,29.5703704 L62.162963,29.5703704 L62.162963,49.0074074 L62.162963,49.0074074 Z" id="Shape"></path>
            </g>
        </g>
    </g>
</svg>