<?xml version="1.0" encoding="UTF-8"?>
<svg width="80px" height="80px" viewBox="0 0 80 80" version="1.1" xmlns="http://www.w3.org/2000/svg" xmlns:xlink="http://www.w3.org/1999/xlink">
    <title>Shape</title>
    <defs>
        <linearGradient x1="50%" y1="0%" x2="50%" y2="100%" id="linearGradient-1">
            <stop stop-color="#6DD400" offset="0%"></stop>
            <stop stop-color="#F7B500" offset="100%"></stop>
        </linearGradient>
    </defs>
    <g id="Slice" stroke="none" stroke-width="1" fill="none" fill-rule="evenodd">
        <g id="切圖" transform="translate(-330.000000, -187.000000)" fill="url(#linearGradient-1)" fill-rule="nonzero">
            <g id="Group-35" transform="translate(330.000000, 187.000000)">
                <path d="M68.284375,11.715625 C60.729375,4.160625 50.684375,0 40,0 C29.315625,0 19.270625,4.160625 11.715625,11.715625 C4.16078125,19.270625 0,29.315625 0,40 C0,50.684375 4.16078125,60.729375 11.715625,68.284375 C19.270625,75.839375 29.315625,80 40,80 C50.684375,80 60.729375,75.839375 68.284375,68.284375 C75.8392188,60.729375 80,50.684375 80,40 C80,29.315625 75.8392188,19.270625 68.284375,11.715625 Z M40,75.3125 C20.5285938,75.3125 4.6875,59.4714063 4.6875,40 C4.6875,20.5285937 20.5285938,4.6875 40,4.6875 C59.4714062,4.6875 75.3125,20.5285937 75.3125,40 C75.3125,59.4714063 59.4714063,75.3125 40,75.3125 Z M42.5104688,37.65625 L37.4895313,37.65625 C34.6290625,37.65625 32.3020313,35.3292187 32.3020313,32.4689062 C32.3020313,29.6084375 34.6292188,27.2814062 37.4895313,27.2814062 L47.53125,27.2814062 C48.825625,27.2814062 49.875,26.2320312 49.875,24.9376562 C49.875,23.6432812 48.825625,22.5939062 47.53125,22.5939062 L42.34375,22.5939062 L42.34375,17.4064062 C42.34375,16.1120312 41.294375,15.0626562 40,15.0626562 C38.705625,15.0626562 37.65625,16.1120312 37.65625,17.4064062 L37.65625,22.5939062 L37.4896875,22.5939062 C32.0445313,22.5939062 27.6146875,27.0239062 27.6146875,32.4689062 C27.6146875,37.9139062 32.0446875,42.34375 37.4896875,42.34375 L42.510625,42.34375 C45.3709375,42.34375 47.6979688,44.6709375 47.6979688,47.53125 C47.6979688,50.3915625 45.3709375,52.71875 42.510625,52.71875 L32.4689063,52.71875 C31.1745313,52.71875 30.1251563,53.768125 30.1251563,55.0625 C30.1251563,56.356875 31.1745313,57.40625 32.4689063,57.40625 L37.65625,57.40625 L37.65625,62.5939062 C37.65625,63.8882812 38.705625,64.9376562 40,64.9376562 C41.294375,64.9376562 42.34375,63.8882812 42.34375,62.5939062 L42.34375,57.40625 L42.5104688,57.40625 C47.9554688,57.40625 52.3853125,52.97625 52.3853125,47.53125 C52.3853125,42.08625 47.9554688,37.65625 42.5104688,37.65625 Z" id="Shape"></path>
            </g>
        </g>
    </g>
</svg>