<?xml version="1.0" encoding="UTF-8"?>
<svg width="80px" height="80px" viewBox="0 0 80 80" version="1.1" xmlns="http://www.w3.org/2000/svg" xmlns:xlink="http://www.w3.org/1999/xlink">
    <title>Shape</title>
    <defs>
        <linearGradient x1="50%" y1="0%" x2="50%" y2="100%" id="linearGradient-1">
            <stop stop-color="#6DD400" offset="0%"></stop>
            <stop stop-color="#F7B500" offset="100%"></stop>
        </linearGradient>
    </defs>
    <g id="Slice" stroke="none" stroke-width="1" fill="none" fill-rule="evenodd">
        <g id="切圖" transform="translate(-50.000000, -187.000000)" fill="url(#linearGradient-1)" fill-rule="nonzero">
            <g id="Group-33" transform="translate(50.000000, 187.000000)">
                <path d="M58.3333333,43.3333333 C46.3866667,43.3333333 36.6666667,33.6133333 36.6666667,21.6666667 C36.6666667,9.72 46.3866667,0 58.3333333,0 C70.28,0 80,9.72 80,21.6666667 C80,33.6133333 70.28,43.3333333 58.3333333,43.3333333 Z M58.3333333,3.33333333 C48.2233333,3.33333333 40,11.5566667 40,21.6666667 C40,31.7766667 48.2233333,40 58.3333333,40 C68.4433333,40 76.6666667,31.7766667 76.6666667,21.6666667 C76.6666667,11.5566667 68.4433333,3.33333333 58.3333333,3.33333333 Z M58.3333333,33.3333333 C57.4133333,33.3333333 56.6666667,32.5866667 56.6666667,31.6666667 L56.6666667,11.6666667 C56.6666667,10.7466667 57.4133333,10 58.3333333,10 C59.2533333,10 60,10.7466667 60,11.6666667 L60,31.6666667 C60,32.5866667 59.2533333,33.3333333 58.3333333,33.3333333 Z M31.6666667,0 C32.5866667,0 33.3333333,0.746666667 33.3333333,1.66666667 C33.3333333,2.58666667 32.5866667,3.33333333 31.6666667,3.33333333 L8.33333333,3.33333333 C5.57666667,3.33333333 3.33333333,5.57666667 3.33333333,8.33333333 L3.33333333,71.6666667 C3.33333333,74.4233333 5.57666667,76.6666667 8.33333333,76.6666667 L58.3333333,76.6666667 C61.09,76.6666667 63.3333333,74.4233333 63.3333333,71.6666667 L63.3333333,51.6666667 C63.3333333,50.7466667 64.08,50 65,50 C65.92,50 66.6666667,50.7466667 66.6666667,51.6666667 L66.6666667,71.6666667 C66.6666667,76.26 62.9266667,80 58.3333333,80 L8.33333333,80 C3.74,80 0,76.26 0,71.6666667 L0,8.33333333 C0,3.74 3.74,0 8.33333333,0 L31.6666667,0 Z M55,50 C55.92,50 56.6666667,50.7466667 56.6666667,51.6666667 C56.6666667,52.5866667 55.92,53.3333333 55,53.3333333 L51.666,53.333 L51.6666667,68.3333333 C51.6666667,69.2533333 50.92,70 50,70 C49.08,70 48.3333333,69.2533333 48.3333333,68.3333333 L48.333,53.333 L45,53.3333333 C44.08,53.3333333 43.3333333,52.5866667 43.3333333,51.6666667 C43.3333333,50.7466667 44.08,50 45,50 L55,50 Z M21.6666667,50 C22.5866667,50 23.3333333,50.7466667 23.3333333,51.6666667 C23.3333333,52.5866667 22.5866667,53.3333333 21.6666667,53.3333333 L18.333,53.333 L18.3333333,68.3333333 C18.3333333,69.2533333 17.5866667,70 16.6666667,70 C15.7466667,70 15,69.2533333 15,68.3333333 L15,53.333 L11.6666667,53.3333333 C10.7466667,53.3333333 10,52.5866667 10,51.6666667 C10,50.7466667 10.7466667,50 11.6666667,50 L21.6666667,50 Z M29.76,50.8066667 L33.334,56.764 L36.9066667,50.81 C37.38,50.0233333 38.4033333,49.7666667 39.1933333,50.24 C39.9833333,50.7133333 40.2366667,51.7366667 39.7633333,52.5266667 L35.277,60.003 L39.76,67.4733333 C40.2333333,68.2633333 39.9766667,69.2866667 39.19,69.76 C38.9233333,69.9233333 38.6266667,70 38.3333333,70 C37.7666667,70 37.2166667,69.7133333 36.9033333,69.19 L33.334,63.241 L29.7633333,69.1933333 C29.45,69.7133333 28.8966667,70 28.3333333,70 C28.0433333,70 27.7466667,69.9233333 27.4766667,69.7633333 C26.6866667,69.29 26.4333333,68.2666667 26.9066667,67.4766667 L31.39,60.002 L26.9033333,52.5233333 C26.43,51.7333333 26.6866667,50.71 27.4733333,50.2366667 C28.2633333,49.7633333 29.2866667,50.02 29.76,50.8066667 Z M68.3333333,20 C69.2533333,20 70,20.7466667 70,21.6666667 C70,22.5866667 69.2533333,23.3333333 68.3333333,23.3333333 L48.3333333,23.3333333 C47.4133333,23.3333333 46.6666667,22.5866667 46.6666667,21.6666667 C46.6666667,20.7466667 47.4133333,20 48.3333333,20 L68.3333333,20 Z" id="Shape"></path>
            </g>
        </g>
    </g>
</svg>