<?xml version="1.0" encoding="UTF-8"?>
<svg width="80px" height="80px" viewBox="0 0 80 80" version="1.1" xmlns="http://www.w3.org/2000/svg" xmlns:xlink="http://www.w3.org/1999/xlink">
    <title>Path</title>
    <defs>
        <linearGradient x1="50%" y1="0%" x2="50%" y2="100%" id="linearGradient-1">
            <stop stop-color="#6DD400" offset="0%"></stop>
            <stop stop-color="#F7B500" offset="100%"></stop>
        </linearGradient>
    </defs>
    <g id="Slice" stroke="none" stroke-width="1" fill="none" fill-rule="evenodd">
        <g id="切圖" transform="translate(-470.000000, -187.000000)" fill="url(#linearGradient-1)">
            <g id="Group-36" transform="translate(470.000000, 187.000000)">
                <path d="M40,76 C20.1177143,76 4,59.8822857 4,40 C4,20.1177143 20.1177143,4 40,4 C59.8822857,4 76,20.1177143 76,40 C76,59.8822857 59.8822857,76 40,76 M40,0 C17.91,0 0,17.91 0,40 C0,62.09 17.91,80 40,80 C62.09,80 80,62.09 80,40 C80,17.91 62.09,0 40,0 M58.0041574,42.9916522 C57.8748484,42.7254683 57.6063588,42.556968 57.3124739,42.5575612 L51.4869613,42.5575612 L51.4869613,22.7599113 L38.5140519,22.7599113 L38.5140519,26.6357237 L33.3187399,19.9383198 C33.1697932,19.7600362 32.9504283,19.6571429 32.7192808,19.6571429 C32.4881333,19.6571429 32.2687685,19.7600362 32.1198217,19.9383198 L19.8232252,35.7981443 C19.6416164,36.0327014 19.6059751,36.3502468 19.7310007,36.6198165 C19.8603098,36.8860004 20.1287994,37.0545007 20.4226843,37.0539075 L26.2174554,37.0539075 L26.2174554,53.90594 L27.75453,53.90594 L27.75453,36.278745 C27.7463526,35.8540979 27.4070104,35.5118304 26.9859927,35.5035825 L21.9597589,35.5035825 L32.7192808,21.6746838 L43.4788028,35.5035825 L38.4525689,35.5035825 C38.0315512,35.5118304 37.6922091,35.8540979 37.6840317,36.278745 L37.6840317,42.4800449 L32.7192808,42.4800449 C32.4253959,42.4794517 32.1569063,42.6479521 32.0275973,42.9141359 C31.9025716,43.1837056 31.9382129,43.501251 32.1198217,43.7358081 L44.4164183,59.5956326 C44.5622841,59.7790138 44.7827826,59.8857143 45.0158773,59.8857143 C45.248972,59.8857143 45.4694705,59.7790138 45.6153364,59.5956326 L57.9119329,43.7358081 C58.0647713,43.5191747 58.0994236,43.239566 58.0041574,42.9916522 Z" id="Path"></path>
            </g>
        </g>
    </g>
</svg>