<?xml version="1.0" encoding="UTF-8"?>
<svg width="24px" height="26px" viewBox="0 0 24 26" version="1.1" xmlns="http://www.w3.org/2000/svg" xmlns:xlink="http://www.w3.org/1999/xlink">
    <title>Graphics / Tab Bar Icons / White / Setting Copy</title>
    <g id="Slice" stroke="none" stroke-width="1" fill="none" fill-rule="evenodd">
        <g transform="translate(-364.000000, -1.000000)" fill="#FFFFFF" fill-rule="nonzero" id="Group-6">
            <g transform="translate(361.000000, 1.000000)">
                <g id="Graphics-/-Tab-Bar-Icons-/-White-/-Guide">
                    <path d="M25.503,0 C26.0316667,0 26.4985833,0.29575 26.7260833,0.772416667 C26.9525,1.248 26.8864167,1.79833333 26.5538333,2.20783333 L26.5538333,2.20783333 L22.1923333,7.58333333 L26.5538333,12.9588333 C26.8853333,13.3683333 26.9525,13.9186667 26.7260833,14.39425 C26.4985833,14.8709167 26.0305833,15.1666667 25.503,15.1666667 L25.503,15.1666667 L5.166,15.166 L5.16666667,24.9166667 C5.16666667,25.5146667 4.68241667,26 4.08333333,26 C3.48425,26 3,25.5146667 3,24.9166667 L3,0.8125 C3,0.364 3.364,0 3.8125,0 L3.8125,0 Z" id="Shape"></path>
                </g>
            </g>
        </g>
    </g>
</svg>