<?xml version="1.0" encoding="UTF-8"?>
<svg width="20px" height="20px" viewBox="0 0 20 20" version="1.1" xmlns="http://www.w3.org/2000/svg" xmlns:xlink="http://www.w3.org/1999/xlink">
    <!-- Generator: Sketch 60 (88103) - https://sketch.com -->
    <title>icon/setting-1</title>
    <desc>Created with Sketch.</desc>
    <g id="PC端" stroke="none" stroke-width="1" fill="none" fill-rule="evenodd">
        <g id="PC教练直播间_直播间元素" transform="translate(-85.000000, -797.000000)" fill="#FFFFFF" fill-rule="nonzero">
            <g id="编组-10" transform="translate(55.000000, 760.000000)">
                <g id="编组-3" transform="translate(0.000000, 29.000000)">
                    <g id="Icon/Live/Voice-Open" transform="translate(30.000000, 8.000000)">
                        <g id="编组">
                            <path d="M10.4166667,0.833333333 C10.6467853,0.833333333 10.8333333,1.01988135 10.8333333,1.25 L10.8333909,2.54578035 C12.2799019,2.7056953 13.6024265,3.27698475 14.6813808,4.14006463 L15.5979287,3.22356001 C15.7606471,3.06084156 16.0244659,3.06084156 16.1871843,3.22356001 L16.77644,3.81281566 C16.9391584,3.97553412 16.9391584,4.23935286 16.77644,4.40207132 L15.8599354,5.3186192 C16.7230153,6.39757348 17.2943047,7.72009812 17.4542197,9.16660908 L18.75,9.16666667 C18.9801186,9.16666667 19.1666667,9.35321469 19.1666667,9.58333333 L19.1666667,10.4166667 C19.1666667,10.6467853 18.9801186,10.8333333 18.75,10.8333333 L17.4541092,10.8343896 C17.2940417,12.2805106 16.7228166,13.6026748 15.8599354,14.6813808 L16.77644,15.5979287 C16.9391584,15.7606471 16.9391584,16.0244659 16.77644,16.1871843 L16.1871843,16.77644 C16.0244659,16.9391584 15.7606471,16.9391584 15.5979287,16.77644 L14.6813808,15.8599354 C13.6024265,16.7230153 12.2799019,17.2943047 10.8333909,17.4542197 L10.8333333,18.75 C10.8333333,18.9801186 10.6467853,19.1666667 10.4166667,19.1666667 L9.58333333,19.1666667 C9.35321469,19.1666667 9.16666667,18.9801186 9.16666667,18.75 L9.16660908,17.4542197 C7.72009812,17.2943047 6.39757348,16.7230153 5.3186192,15.8599354 L4.40207132,16.77644 C4.23935286,16.9391584 3.97553412,16.9391584 3.81281566,16.77644 L3.22356001,16.1871843 C3.06084156,16.0244659 3.06084156,15.7606471 3.22356001,15.5979287 L4.14006463,14.6813808 C3.27718337,13.6026748 2.70595826,12.2805106 2.54589082,10.8343896 L1.25,10.8333333 C1.01988135,10.8333333 0.833333333,10.6467853 0.833333333,10.4166667 L0.833333333,9.58333333 C0.833333333,9.35321469 1.01988135,9.16666667 1.25,9.16666667 L2.54578035,9.16660908 C2.7056953,7.72009812 3.27698475,6.39757348 4.14006463,5.3186192 L3.22356001,4.40207132 C3.06084156,4.23935286 3.06084156,3.97553412 3.22356001,3.81281566 L3.81281566,3.22356001 C3.97553412,3.06084156 4.23935286,3.06084156 4.40207132,3.22356001 L5.3186192,4.14006463 C6.39757348,3.27698475 7.72009812,2.7056953 9.16660908,2.54578035 L9.16666667,1.25 C9.16666667,1.01988135 9.35321469,0.833333333 9.58333333,0.833333333 L10.4166667,0.833333333 Z M10,4.16666667 C6.77833896,4.16666667 4.16666667,6.77833896 4.16666667,10 C4.16666667,13.221661 6.77833896,15.8333333 10,15.8333333 C13.221661,15.8333333 15.8333333,13.221661 15.8333333,10 C15.8333333,6.77833896 13.221661,4.16666667 10,4.16666667 Z M10,8.75 C10.6903559,8.75 11.25,9.30964406 11.25,10 C11.25,10.6903559 10.6903559,11.25 10,11.25 C9.30964406,11.25 8.75,10.6903559 8.75,10 C8.75,9.30964406 9.30964406,8.75 10,8.75 Z" id="形状结合"></path>
                        </g>
                    </g>
                </g>
            </g>
        </g>
    </g>
</svg>