<svg xmlns="http://www.w3.org/2000/svg" width="17" height="17" viewBox="0 0 17 17">
    <path fill="#838D9E" d="M5.013 13.016v1.328C5.013 15.808 6.204 17 7.669 17h6.674c1.465 0 2.656-1.192 2.656-2.656V2.656C17 1.192 15.808 0 14.343 0H7.669C6.204 0 5.013 1.192 5.013 2.656v1.328c0 .367.297.664.664.664.367 0 .664-.297.664-.664V2.656c0-.732.596-1.328 1.328-1.328h6.674c.732 0 1.328.596 1.328 1.328v11.688c0 .732-.596 1.328-1.328 1.328H7.669c-.732 0-1.328-.596-1.328-1.328v-1.328c0-.367-.297-.664-.664-.664-.367 0-.664.297-.664.664zM.485 7.359l1.488-1.487c.259-.26.68-.26.939 0 .26.26.26.68 0 .94L1.854 7.868h7.973c.367 0 .664.297.664.664 0 .367-.297.664-.664.664H1.854l1.058 1.058c.26.26.26.68 0 .94-.13.129-.3.194-.47.194-.17 0-.34-.065-.47-.195L.486 9.707c-.647-.647-.647-1.7 0-2.348z"/>
</svg>
