<?xml version="1.0" encoding="UTF-8"?>
<svg width="178px" height="138px" viewBox="0 0 178 138" version="1.1" xmlns="http://www.w3.org/2000/svg" xmlns:xlink="http://www.w3.org/1999/xlink">
    <!-- Generator: Sketch 64 (93537) - https://sketch.com -->
    <title>Slice</title>
    <desc>Created with Sketch.</desc>
    <g id="Slice" stroke="none" stroke-width="1" fill="none" fill-rule="evenodd">
        <g id="切圖" transform="translate(0.000000, -31.000000)" fill="#FFFFFF" fill-rule="nonzero">
            <g id="Group" transform="translate(0.000000, 31.000000)">
                <path d="M119.290228,56 L99.1734076,75.840924 C95.3011596,79.8203079 95.3645918,86.1226893 99.3161723,90.025473 C103.267753,93.9282567 109.657677,93.9995419 113.697752,90.1859121 L119.310345,84.6502943 L119.290228,56 Z" id="Path"></path>
                <path d="M174.50896,75.2370107 L142.306841,43.0992171 C140.420286,41.214674 137.860512,40.1558009 135.191275,40.1558009 C132.522038,40.1558009 129.962264,41.214674 128.075709,43.0992171 C125.300343,45.8886833 125.772746,48.599573 125.772746,53.3730961 L125.772746,93.6632028 C125.788438,97.136429 124.419629,100.473338 121.967994,102.938499 C119.51636,105.403661 116.183135,106.79473 112.702937,106.805125 L44.6966272,106.805125 C41.2164294,106.79473 37.8832042,105.403661 35.4315696,102.938499 C32.979935,100.473338 31.6111261,97.136429 31.6268184,93.6632028 L31.6268184,44.5528826 C31.6163619,41.0830533 32.9874851,37.7511954 35.4385531,35.2902876 C37.8896211,32.8293798 41.2198528,31.4410092 44.6966272,31.430605 L90.1063395,31.430605 C90.6570831,31.4599798 91.2090056,31.4599798 91.7597491,31.430605 C100.456443,31.430605 107.506507,24.3946244 107.506507,15.7153025 C107.506507,7.03598059 100.456443,0 91.7597491,0 C91.3463967,0 90.9527278,0 90.5393754,0 L44.6966272,0 C32.8985714,0.026020937 21.5940939,4.72838831 13.2700655,13.0726289 C4.94603709,21.4168694 0.284323325,32.7194619 0.310344828,44.4939502 L0.310344828,93.6042705 C0.310344828,118.085048 20.1669094,137.945839 44.6966272,138 L112.624203,138 C137.153921,137.945839 157.010436,118.085048 157.010376,93.6042705 L157.010376,86.1591459 L160.297512,89.4397153 C164.250552,93.2155189 170.502819,93.1449408 174.369271,89.2808676 C178.235724,85.4167944 178.297789,79.1769242 174.50896,75.2370107 L174.50896,75.2370107 Z" id="Path"></path>
                <path d="M152.310345,16 C152.310345,24.836556 145.146901,32 136.310345,32 C127.473789,32 120.310345,24.836556 120.310345,16 C120.310345,7.163444 127.473789,0 136.310345,0 C145.146901,0 152.310345,7.163444 152.310345,16 Z" id="Path"></path>
                <path d="M125.310345,50 C125.310345,51.16 125.310345,52.42 125.310345,54 L125.310345,50 Z" id="Path"></path>
                <path d="M91.5345462,27.8392857 C90.9829673,27.8688493 90.4302077,27.8688493 89.8786287,27.8392857 L44.4000378,27.8392857 C40.9179897,27.8497569 37.5827066,29.2470524 35.1279207,31.7237799 C32.6731349,34.2005073 31.299932,37.5537837 31.3103448,41.0459184 L31.3103448,45 C31.299932,41.5078653 32.6731349,38.154589 35.1279207,35.6778615 C37.5827066,33.201134 40.9179897,31.8038385 44.4000378,31.7933673 L89.8786287,31.7933673 C90.4302077,31.822931 90.9829673,31.822931 91.5345462,31.7933673 C96.0733288,31.8350222 100.406067,29.8961903 103.406771,26.4807343 C106.407475,23.0652784 107.779832,18.510466 107.167196,14 C106.174423,21.9027458 99.4767549,27.8320629 91.5345462,27.8392857 Z" id="Path"></path>
                <path d="M148.310345,119.834146 C140.190791,128.595122 125.367199,134.097561 112.489941,134.097561 L44.643501,134.097561 C20.1430827,134.043764 0.310344828,114.316361 0.310344828,90 L0.310344828,93.902439 C0.310344828,118.2188 20.1430827,137.946203 44.643501,138 L112.489941,138 C126.668184,137.989725 139.984641,131.24371 148.310345,119.853659 L148.310345,119.834146 Z" id="Path"></path>
                <path d="M174.427553,86.1341094 C172.587931,88.0248792 170.086187,89.0880627 167.476696,89.0880627 C164.867205,89.0880627 162.36546,88.0248792 160.525838,86.1341094 L157.310345,82.8490662 L157.310345,86.7832496 L160.525838,90.0682928 C163.591771,93.1893881 168.29407,93.8970613 172.110714,91.8117604 C175.927358,89.7264595 177.961915,85.3379679 177.123177,81 C176.752779,82.9502197 175.812998,84.7401356 174.427553,86.1341094 Z" id="Path"></path>
                <path d="M99.2823876,86.682573 C97.7584304,85.1469186 96.7622629,83.1544731 96.4412588,81 C95.7360384,85.4317634 97.927604,89.8194297 101.867618,91.8639463 C105.807631,93.9084629 110.597783,93.1436874 113.728127,89.9703474 L119.310345,84.3080693 L119.310345,81 L113.728127,86.682573 C109.736905,90.7236177 103.27361,90.7236177 99.2823876,86.682573 Z" id="Path"></path>
                <path d="M150.608854,11 C151.451837,18.9887901 146.186963,26.3332568 138.400885,28.0300408 C130.614808,29.7268248 122.812985,25.2299234 120.310345,17.6028148 C121.506709,25.6745012 128.6283,31.4805722 136.704519,30.9686113 C144.780737,30.4566503 151.125454,23.7969342 151.310345,15.6376914 C151.314134,14.0646282 151.077542,12.5003668 150.608854,11 Z" id="Path" style="mix-blend-mode: multiply;"></path>
            </g>
        </g>
    </g>
</svg>