<?xml version="1.0" encoding="UTF-8"?>
<svg width="32px" height="35px" viewBox="0 0 32 35" version="1.1" xmlns="http://www.w3.org/2000/svg" xmlns:xlink="http://www.w3.org/1999/xlink">
    <!-- Generator: Sketch 64 (93537) - https://sketch.com -->
    <title>Slice 16</title>
    <desc>Created with Sketch.</desc>
    <g id="Slice" stroke="none" stroke-width="1" fill="none" fill-rule="evenodd">
        <g id="切圖" transform="translate(-392.000000, -83.000000)" fill="#FFFFFF" fill-rule="nonzero">
            <g id="Group-16" transform="translate(388.000000, 83.000000)">
                <g id="Graphics-/-Tab-Bar-Icons-/-White-/-Chart" transform="translate(0.000000, 0.000000)">
                    <path d="M13.24,12.24 L9.94666667,12.24 L9.94666667,6.66666667 L8.61333333,6.66666667 L8.61333333,12.24 L5.33333333,12.24 C4.9651435,12.24 4.66666667,12.5384768 4.66666667,12.9066667 L4.66666667,28.4533333 C4.66666667,28.8215232 4.9651435,29.12 5.33333333,29.12 L8.62666667,29.12 L8.62666667,34.6666667 L9.96,34.6666667 L9.96,29.12 L13.24,29.12 C13.6029725,29.1127391 13.8934696,28.8163784 13.8933333,28.4533333 L13.8933333,12.9066667 C13.8969172,12.7310934 13.8296695,12.5614695 13.7067551,12.4360466 C13.5838408,12.3106238 13.4156099,12.2399634 13.24,12.24 Z" id="Path"></path>
                    <path d="M24,4.66666667 L20.6666667,4.66666667 L20.6666667,0 L19.3333333,0 L19.3333333,4.66666667 L16,4.66666667 C15.8243901,4.66663009 15.6561592,4.73729049 15.5332449,4.86271331 C15.4103305,4.98813613 15.3430828,5.15776005 15.3466667,5.33333333 L15.3466667,22.4266667 C15.3430828,22.60224 15.4103305,22.7718639 15.5332449,22.8972867 C15.6561592,23.0227095 15.8243901,23.0933699 16,23.0933333 L19.3333333,23.0933333 L19.3333333,28.64 L20.6666667,28.64 L20.6666667,23.0933333 L24,23.0933333 C24.1756099,23.0933699 24.3438408,23.0227095 24.4667551,22.8972867 C24.5896695,22.7718639 24.6569172,22.60224 24.6533333,22.4266667 L24.6533333,5.33333333 C24.6569172,5.15776005 24.5896695,4.98813613 24.4667551,4.86271331 C24.3438408,4.73729049 24.1756099,4.66663009 24,4.66666667 Z M23.3333333,21.76 L16.7066667,21.76 L16.7066667,6 L23.2933333,6 L23.3333333,21.76 Z" id="Shape"></path>
                    <path d="M34.6666667,9.33333333 L31.3733333,9.33333333 L31.3733333,5.18666667 L30.04,5.18666667 L30.04,9.33333333 L26.76,9.33333333 C26.3970275,9.34059423 26.1065304,9.63695492 26.1066667,10 L26.1066667,26.76 C26.1030828,26.9355733 26.1703305,27.1051972 26.2932449,27.23062 C26.4161592,27.3560428 26.5843901,27.4267032 26.76,27.4266667 L30.0533333,27.4266667 L30.0533333,33.16 L31.3866667,33.16 L31.3866667,27.4266667 L34.6666667,27.4266667 C35.0348565,27.4266667 35.3333333,27.1281898 35.3333333,26.76 L35.3333333,9.97333333 C35.3190125,9.61559739 35.024689,9.33304681 34.6666667,9.33333333 Z" id="Path"></path>
                </g>
            </g>
        </g>
    </g>
</svg>