<?xml version="1.0" encoding="UTF-8"?>
<svg width="31px" height="25px" viewBox="0 0 31 25" version="1.1" xmlns="http://www.w3.org/2000/svg" xmlns:xlink="http://www.w3.org/1999/xlink">
    <!-- Generator: Sketch 64 (93537) - https://sketch.com -->
    <title>Slice 4</title>
    <desc>Created with Sketch.</desc>
    <g id="Slice" stroke="none" stroke-width="1" fill="none" fill-rule="evenodd">
        <g id="切圖" transform="translate(-280.000000, -31.000000)" fill="#FFFFFF" fill-rule="nonzero">
            <g id="Group-4" transform="translate(280.000000, 31.000000)">
                <g id="Slice-4" transform="translate(0.739697, 0.000000)">
                    <path d="M14.0723684,22.9164012 C10.2894737,19.097001 1.81578947,22.3052972 1.81578947,22.3052972 L1.81578947,1.06943206 L1.36184211,1.06943206 C-9.41469125e-14,1.06943206 -9.41469125e-14,1.06943206 -9.41469125e-14,2.74996814 L-9.41469125e-14,22.1525212 C-9.41469125e-14,23.0691772 0.605263158,23.8330572 1.36184211,23.8330572 L12.5592105,23.8330572 C12.5592105,23.8330572 13.1644737,24.4441613 13.3157895,24.5969373 C14.0723684,25.2080413 15.4342105,25.0552653 16.3421053,24.5969373 C16.6447368,24.4441613 17.0986842,23.8330572 17.0986842,23.8330572 L28.9013158,23.8330572 C29.6578947,23.8330572 30.2631579,23.0691772 30.2631579,22.1525212 L30.2631579,2.74996814 C30.2631579,1.06943206 30.2631579,1.06943206 28.9013158,1.06943206 L28.4473684,1.06943206 L28.4473684,22.1525212 C28.4473684,22.1525212 19.3684211,19.097001 15.5855263,22.9164012" id="Path"></path>
                    <path d="M14.375,22.1525212 C14.375,22.1525212 14.375,7.79157641 14.375,4.88883226 C14.375,4.58328024 14.375,4.43050423 14.2236842,4.12495222 C13.4671053,2.44441613 10.5921053,1.37498407 7.71710526,0.76388004 C7.56578947,0.76388004 7.56578947,0.76388004 7.41447368,0.76388004 C4.84210526,0.152776008 2.57236842,-2.66453526e-14 2.57236842,-2.66453526e-14 L2.57236842,0.611104032 L2.57236842,0.611104032 L2.72368421,21.0830891 C2.72368421,21.2358651 10.8947368,18.485897 14.375,22.1525212 Z" id="Path"></path>
                    <path d="M15.5855263,3.97217621 C15.4342105,4.12495222 15.4342105,4.43050423 15.4342105,4.73605625 C15.4342105,7.6388004 15.4342105,22.1525212 15.4342105,22.1525212 C19.0657895,18.485897 27.6907895,21.0830891 27.6907895,21.0830891 L27.8421053,0.916656048 L27.8421053,0.611104032 L27.8421053,-2.66453526e-14 C27.8421053,-2.66453526e-14 25.2697368,0.152776008 22.6973684,0.611104032 C22.3947368,0.611104032 22.0921053,0.76388004 21.7894737,0.76388004 C18.9144737,1.37498407 16.1907895,2.44441613 15.5855263,3.97217621 Z" id="Path"></path>
                </g>
            </g>
        </g>
    </g>
</svg>