<?xml version="1.0" encoding="UTF-8"?>
<svg width="33px" height="35px" viewBox="0 0 33 35" version="1.1" xmlns="http://www.w3.org/2000/svg" xmlns:xlink="http://www.w3.org/1999/xlink">
    <title>Icon</title>
    <g id="Page-1" stroke="none" stroke-width="1" fill="none" fill-rule="evenodd">
        <g id="Slice" transform="translate(-542.000000, -53.000000)" fill="#FFFFFF" fill-rule="nonzero">
            <g id="Icon" transform="translate(538.000000, 53.000000)">
                <path d="M34.9427083,15.3125 L34.9427083,18.1152344 L32.640625,18.1152344 L32.640625,16.40625 C32.640625,14.3695508 31.51775,12.5931641 29.8645833,11.6733887 L29.8645833,11.6730469 C26.3073906,9.70176758 21.9427083,12.3090625 21.9427083,16.40625 L21.9427083,18.1152344 L19.9114583,18.1152344 L19.9114583,16.40625 C19.9114583,11.2035547 25.0755729,7.61694336 29.8645833,9.42197266 L29.8645833,0 L4,0 L4,23.9927734 L17.6648958,24.0112305 C18.1463021,28.5762695 21.7524479,32.2116211 26.2760417,32.6901367 L26.2760417,35 L28.3072917,35 L28.3072917,32.6901367 C32.9933854,32.1945313 36.695,28.3110352 36.9583854,23.515625 C36.982625,23.515625 36.9739583,24.1467187 36.9739583,15.3125 L34.9427083,15.3125 Z M8.33333333,4.44335938 L25.6666667,4.44335938 L25.6666667,6.49414063 L8.33333333,6.49414063 L8.33333333,4.44335938 Z M8.33333333,8.81835938 L18.828125,8.81835938 L18.828125,10.8691406 L8.33333333,10.8691406 L8.33333333,8.81835938 Z M15.375,19.6191406 L8.33333333,19.6191406 L8.33333333,17.5683594 L15.375,17.5683594 L15.375,19.6191406 Z M15.375,15.2441406 L8.33333333,15.2441406 L8.33333333,13.1933594 L15.375,13.1933594 L15.375,15.2441406 Z M34.9427083,22.96875 C34.9427083,27.2282227 31.5105729,30.6933594 27.2916667,30.6933594 C23.4241667,30.6933594 20.2175,27.78125 19.7110417,24.0139648 C19.6178073,23.3316699 19.640625,23.1353418 19.640625,20.1660156 L21.9427083,20.1660156 C21.9427083,21.0464844 21.9108854,24.0173828 22.0447448,24.0173828 C22.5296719,26.4948633 24.697625,28.3691406 27.2916667,28.3691406 C30.2411094,28.3691406 32.640625,25.9465527 32.640625,22.96875 L32.640625,20.1660156 L34.9427083,20.1660156 L34.9427083,22.96875 Z" id="Shape"></path>
            </g>
        </g>
    </g>
</svg>