<svg xmlns="http://www.w3.org/2000/svg" width="22" height="22" viewBox="0 0 22 22">
    <g fill="none" fill-rule="evenodd">
        <path fill="#FF3B30" d="M10.808 21.615C4.889 21.615 0 16.726 0 10.808 0 4.889 4.88 0 10.8 0c5.918 0 10.815 4.89 10.815 10.808s-4.889 10.807-10.807 10.807z"/>
        <path fill="#FFF" d="M6.958 14.539c.364.364.827.334 1.209-.047l2.577-2.577 2.676 2.676c.376.376.834.435 1.186.083.37-.37.334-.828-.053-1.215l-2.677-2.677 2.689-2.688c.381-.382.416-.851.052-1.215-.358-.358-.821-.294-1.191.076l-2.688 2.688-2.671-2.67c-.393-.394-.851-.429-1.22-.059-.353.352-.288.816.087 1.192l2.67 2.67-2.576 2.577c-.364.364-.428.828-.07 1.186z"/>
    </g>
</svg>
