<?xml version="1.0" standalone="no"?><!DOCTYPE svg PUBLIC "-//W3C//DTD SVG 1.1//EN" "http://www.w3.org/Graphics/SVG/1.1/DTD/svg11.dtd"><svg t="1589099957199" class="icon" viewBox="0 0 1027 1024" version="1.1" xmlns="http://www.w3.org/2000/svg" p-id="906" xmlns:xlink="http://www.w3.org/1999/xlink" width="200.5859375" height="200"><defs><style type="text/css">@font-face { font-family: element-icons; src: url("chrome-extension://moombeodfomdpjnpocobemoiaemednkg/fonts/element-icons.woff") format("woff"), url("chrome-extension://moombeodfomdpjnpocobemoiaemednkg/fonts/element-icons.ttf ") format("truetype"); }
</style></defs><path d="M586.502212 978.102252a394.234086 394.234086 0 0 0 315.032813-311.842707 157.575483 157.575483 0 0 0 5.6713-307.195393C889.601666 157.772403 720.683584 0 514.902055 0 309.120527 0 140.202445 157.811787 122.597786 359.024768A157.614867 157.614867 0 1 0 199.829859 664.566032V393.840246a315.072197 315.072197 0 1 1 630.144393 0v196.920123a315.190349 315.190349 0 0 1-251.033772 308.573833 78.768049 78.768049 0 1 0 7.561732 78.76805z" fill="#FFFFFF" p-id="907"></path></svg>