<?xml version="1.0" encoding="UTF-8"?>
<svg width="28px" height="27px" viewBox="0 0 28 27" version="1.1" xmlns="http://www.w3.org/2000/svg" xmlns:xlink="http://www.w3.org/1999/xlink">
    <!-- Generator: Sketch 64 (93537) - https://sketch.com -->
    <title>Slice 9</title>
    <desc>Created with Sketch.</desc>
    <g id="Slice" stroke="none" stroke-width="1" fill="none" fill-rule="evenodd">
        <g id="切圖" transform="translate(-483.000000, -31.000000)" fill="#FFFFFF" fill-rule="nonzero">
            <g id="Group-9" transform="translate(482.000000, 31.000000)">
                <g id="Graphics-/-Tab-Bar-Icons-/-White-/-Setting">
                    <path d="M27.39,10 L25.39,9.57 C25.2182711,9.03388812 25.0042659,8.51225054 24.75,8.01 L25.85,6.29 C26.0687762,5.97786285 26.0262533,5.55263421 25.75,5.29 L22.64,2.25 C22.3773658,1.97374671 21.9521372,1.93122384 21.64,2.15 L20,3.25 C19.4977495,2.99573408 18.9761119,2.78172891 18.44,2.61 L18,0.61 C17.9213835,0.236488235 17.5809987,-0.0230551678 17.2,-3.50197302e-16 L12.8,-3.50197302e-16 C12.4190013,-0.0230551678 12.0786165,0.236488235 12,0.61 L11.57,2.61 C11.0338881,2.78172891 10.5122505,2.99573408 10.01,3.25 L8.33,2.15 C8.01786285,1.93122384 7.59263421,1.97374671 7.33,2.25 L4.25,5.36 C3.97374671,5.62263421 3.93122384,6.04786285 4.15,6.36 L5.25,8.08 C4.99573408,8.58225054 4.78172891,9.10388812 4.61,9.64 L2.61,10.07 C2.26269047,10.1436091 2.0107281,10.4451379 1.9999696,10.8 L1.9999696,15.2 C1.99676616,15.5661474 2.25182748,15.8839287 2.61,15.96 L4.61,16.39 C4.7792125,16.9431721 4.99325524,17.4816234 5.25,18 L4.15,19.72 C3.93122384,20.0321372 3.97374671,20.4573658 4.25,20.72 L7.36,23.83 C7.62263421,24.1062533 8.04786285,24.1487762 8.36,23.93 L10.08,22.83 C10.5822505,23.0842659 11.1038881,23.2982711 11.64,23.47 L12.07,25.47 C12.1460713,25.8281725 12.4638526,26.0832338 12.83,26.0800304 L17.23,26.0800304 C17.5961474,26.0832338 17.9139287,25.8281725 17.99,25.47 L18.42,23.47 C18.9654024,23.2734453 19.4938281,23.0326438 20,22.75 L21.72,23.85 C22.0321372,24.0687762 22.4573658,24.0262533 22.72,23.75 L25.83,20.64 C26.1062533,20.3773658 26.1487762,19.9521372 25.93,19.64 L24.75,18 C25.0042659,17.4977495 25.2182711,16.9761119 25.39,16.44 L27.39,16.01 C27.7675062,15.9308882 28.0282372,15.5846716 28,15.2 L28,10.8 C28.0230552,10.4190013 27.7635118,10.0786165 27.39,10 Z M21,13 C21,16.3137085 18.3137085,19 15,19 C11.6862915,19 9,16.3137085 9,13 C9,9.6862915 11.6862915,7 15,7 C18.3137085,7 21,9.6862915 21,13 Z" id="Shape"></path>
                </g>
            </g>
        </g>
    </g>
</svg>