<?xml version="1.0" encoding="UTF-8"?>
<svg width="27px" height="26px" viewBox="0 0 27 26" version="1.1" xmlns="http://www.w3.org/2000/svg" xmlns:xlink="http://www.w3.org/1999/xlink">
    <!-- Generator: Sketch 64 (93537) - https://sketch.com -->
    <title>Slice 5</title>
    <desc>Created with Sketch.</desc>
    <g id="Slice" stroke="none" stroke-width="1" fill="none" fill-rule="evenodd">
        <g id="切圖" transform="translate(-323.000000, -31.000000)" fill="#FFFFFF" fill-rule="nonzero">
            <g id="Group-5" transform="translate(322.000000, 31.000000)">
                <g id="Graphics-/-Tab-Bar-Icons-/-White-/-Setting" transform="translate(-0.000000, 0.000000)">
                    <path d="M26.3365385,9.61538462 L24.4134615,9.20192308 C24.2483376,8.68643089 24.0425634,8.18485629 23.7980769,7.70192308 L24.8557692,6.04807692 C25.0661309,5.74794505 25.0252435,5.33907135 24.7596154,5.08653846 L21.7692308,2.16346154 C21.5166979,1.89783337 21.1078242,1.856946 20.8076923,2.06730769 L19.2307692,3.125 C18.747836,2.88051354 18.2462614,2.67473934 17.7307692,2.50961538 L17.3076923,0.586538462 C17.2320996,0.227392534 16.9048065,-0.0221684305 16.5384615,-3.36536354e-16 L12.3076923,-3.36536354e-16 C11.9413474,-0.0221684305 11.6140543,0.227392534 11.5384615,0.586538462 L11.125,2.50961538 C10.6095078,2.67473934 10.1079332,2.88051354 9.625,3.125 L8.00961538,2.06730769 C7.70948351,1.856946 7.30060981,1.89783337 7.04807692,2.16346154 L4.08653846,5.15384615 C3.8209103,5.40637905 3.78002293,5.81525274 3.99038462,6.11538462 L5.04807692,7.76923077 C4.80359046,8.25216398 4.59781626,8.75373858 4.43269231,9.26923077 L2.50961538,9.68269231 C2.17566392,9.75347033 1.9333924,10.0434018 1.92304769,10.3846154 L1.92304769,14.6153846 C1.91996747,14.9674494 2.16521873,15.2730084 2.50961538,15.3461538 L4.43269231,15.7596154 C4.59539664,16.2915116 4.80120696,16.8092532 5.04807692,17.3076923 L3.99038462,18.9615385 C3.78002293,19.2616703 3.8209103,19.670544 4.08653846,19.9230769 L7.07692308,22.9134615 C7.32945597,23.1790897 7.73832966,23.2199771 8.03846154,23.0096154 L9.69230769,21.9519231 C10.1752409,22.1964095 10.6768155,22.4021837 11.1923077,22.5673077 L11.6057692,24.4903846 C11.6789147,24.8347813 11.9844736,25.0800325 12.3365385,25.0769523 L16.5673077,25.0769523 C16.9193725,25.0800325 17.2249315,24.8347813 17.2980769,24.4903846 L17.7115385,22.5673077 C18.2359638,22.3783128 18.7440655,22.1467728 19.2307692,21.875 L20.8846154,22.9326923 C21.1847473,23.143054 21.593621,23.1021666 21.8461538,22.8365385 L24.8365385,19.8461538 C25.1021666,19.593621 25.143054,19.1847473 24.9326923,18.8846154 L23.7980769,17.3076923 C24.0425634,16.8247591 24.2483376,16.3231845 24.4134615,15.8076923 L26.3365385,15.3942308 C26.6995252,15.3181617 26.950228,14.9852612 26.9230769,14.6153846 L26.9230769,10.3846154 C26.9452454,10.0182704 26.6956844,9.69097737 26.3365385,9.61538462 Z M20.1923077,12.5 C20.1923077,15.6862582 17.6093351,18.2692308 14.4230769,18.2692308 C11.2368188,18.2692308 8.65384615,15.6862582 8.65384615,12.5 C8.65384615,9.31374183 11.2368188,6.73076923 14.4230769,6.73076923 C17.6093351,6.73076923 20.1923077,9.31374183 20.1923077,12.5 Z" id="Shape"></path>
                </g>
            </g>
        </g>
    </g>
</svg>