<?xml version="1.0" encoding="UTF-8"?>
<svg width="26px" height="27px" viewBox="0 0 26 27" version="1.1" xmlns="http://www.w3.org/2000/svg" xmlns:xlink="http://www.w3.org/1999/xlink">
    <title>Path 2</title>
    <g id="Page-1" stroke="none" stroke-width="1" fill="none" fill-rule="evenodd">
        <g id="Slice" transform="translate(-310.000000, -197.000000)" fill="#FFFFFF" fill-rule="nonzero">
            <g id="Slice-47" transform="translate(310.000000, 197.000000)">
                <path d="M25.9420935,13.3083067 L25.9420935,17.01432 C25.9389268,19.5714783 23.8667351,21.6436699 21.3095768,21.6468367 L21.3095768,21.6468367 L3.16314031,21.6468367 L6.82278328,25.3064797 L5.51264965,26.6166133 L0.271436526,21.3754002 C-0.0902526592,21.0134848 -0.0902526592,20.4271819 0.271436526,20.0652666 L0.271436526,20.0652666 L5.51264965,14.8240535 L6.82278328,16.1341871 L3.16314031,19.7938301 L21.3095768,19.7938301 C22.8445504,19.7938301 24.0890869,18.5492936 24.0890869,17.01432 L24.0890869,17.01432 L24.0890869,13.3083067 L25.9420935,13.3083067 Z M20.4294439,-2.15827356e-13 L25.670657,5.24121313 C26.0323461,5.60312849 26.0323461,6.18943139 25.670657,6.55134676 L25.670657,6.55134676 L20.4294439,11.7925599 L19.1193103,10.4824263 L22.7789532,6.82278328 L4.6325167,6.82278328 C3.09731694,6.82278328 1.85300668,8.06709354 1.85300668,9.60229331 L1.85300668,9.60229331 L1.85300668,13.3083067 L3.7658765e-13,13.3083067 L3.7658765e-13,9.60229331 C0.00294054788,7.04513499 2.07535839,4.97271715 4.6325167,4.9697766 L4.6325167,4.9697766 L22.7789532,4.9697766 L19.1193103,1.31013363 L20.4294439,-2.15827356e-13 Z" id="Path-2"></path>
            </g>
        </g>
    </g>
</svg>