<svg xmlns="http://www.w3.org/2000/svg" width="33.788" height="35" viewBox="0 0 33.788 35">
  <defs>
    <style>
      .cls-1 {
        fill: #f2e237;
      }
    </style>
  </defs>
  <path id="Path_2" data-name="Path 2" class="cls-1" d="M.354,28.108a1.226,1.226,0,0,1,0-1.723L7.18,19.494l1.706,1.723L4.12,26.029H27.755a3.638,3.638,0,0,0,3.62-3.655V17.5h2.413v4.874a6.072,6.072,0,0,1-6.034,6.092H4.12l4.766,4.812L7.18,35ZM0,17.5V12.627A6.07,6.07,0,0,1,6.034,6.535H29.669L24.9,1.723,26.609,0l6.826,6.892a1.226,1.226,0,0,1,0,1.723l-6.826,6.891L24.9,13.784l4.766-4.812H6.034a3.638,3.638,0,0,0-3.62,3.655V17.5Z"/>
</svg>
