<svg xmlns="http://www.w3.org/2000/svg" width="23" height="22" viewBox="0 0 23 22">
    <g fill="none" fill-rule="evenodd">
        <path fill="#007AFF" d="M11.808 21.615C5.889 21.615 1 16.726 1 10.808 1 4.889 5.88 0 11.8 0c5.918 0 10.815 4.89 10.815 10.808s-4.889 10.807-10.807 10.807z"/>
        <path fill="#FFF" d="M10.48 16.236c.307 0 .572-.14.771-.448l5.579-8.74c.124-.183.232-.407.232-.607 0-.44-.39-.713-.797-.713-.24 0-.481.14-.664.423l-5.163 8.21-2.748-3.445c-.215-.274-.44-.374-.705-.374-.407 0-.747.324-.747.764 0 .207.083.431.224.606l3.204 3.884c.257.316.506.44.813.44z"/>
    </g>
</svg>
