<?xml version="1.0" encoding="UTF-8"?>
<svg width="40px" height="35px" viewBox="0 0 40 35" version="1.1" xmlns="http://www.w3.org/2000/svg" xmlns:xlink="http://www.w3.org/1999/xlink">
    <!-- Generator: Sketch 64 (93537) - https://sketch.com -->
    <title>Slice 13</title>
    <desc>Created with Sketch.</desc>
    <g id="Slice" stroke="none" stroke-width="1" fill="none" fill-rule="evenodd">
        <g id="切圖" transform="translate(-238.000000, -83.000000)" fill="#F2E205" fill-rule="nonzero">
            <g id="Group-13" transform="translate(238.000000, 83.000000)">
                <g id="Graphics-/-Tab-Bar-Icons-/-Yellow-/-Quotes" transform="translate(0.000000, -0.000000)">
                    <path d="M37.3333333,0 C36.227416,0.00709405219 35.2406477,0.696079741 34.8529749,1.73184678 C34.4653021,2.76761382 34.7571888,3.93518183 35.5866667,4.66666667 L27.2266667,21.4 C26.1701004,21.1713222 25.0800106,21.6031452 24.4666667,22.4933333 L14.6666667,18.92 C14.6731986,18.8356819 14.6731986,18.7509848 14.6666667,18.6666667 C14.6666667,17.1939073 13.4727593,16 12.0000017,16 C10.5272407,16 9.33333333,17.1939073 9.33333333,18.6666667 C9.34016157,19.2993526 9.57173225,19.9089978 9.98666667,20.3866667 L3.6,29.5066667 C2.50739753,29.0984371 1.27627063,29.4476515 0.560742129,30.3687653 C-0.154786367,31.289879 -0.188662417,32.5691275 0.477113017,33.5268198 C1.14288845,34.4845122 2.35380761,34.898395 3.46648445,34.5485638 C4.57916129,34.1987327 5.33537481,33.1663736 5.33333333,32 C5.32650509,31.3673141 5.09493442,30.7576688 4.68,30.28 L11.0666667,21.16 C11.3649071,21.2731338 11.681026,21.3318416 12.0000017,21.3333333 C12.8797876,21.3332534 13.70292,20.8992381 14.2,20.1733333 L24.0000017,23.7466667 C23.9934681,23.8309848 23.9934681,23.9156819 24.0000017,24 C23.9930799,25.2323656 24.8315304,26.3089472 26.0280602,26.6040561 C27.2245901,26.899165 28.467483,26.3359205 29.0343934,25.2416695 C29.6013039,24.1474184 29.3445422,22.8072316 28.4133333,22 L36.7733333,5.33333333 C37.7260416,5.43336771 38.659748,5.01753949 39.2227344,4.24248713 C39.7857209,3.46743477 39.8924563,2.45090717 39.5027344,1.57582044 C39.1130126,0.700733711 38.2860416,0.100034352 37.3333333,0 Z" id="Path"></path>
                </g>
            </g>
        </g>
    </g>
</svg>