<svg id="圖層_1" data-name="圖層 1" xmlns="http://www.w3.org/2000/svg" viewBox="0 0 196 171.34"><defs><style>.cls-1{fill:#e7d923;}</style></defs><path class="cls-1" d="M192,175.67H8a6,6,0,0,1-5.18-9l28.8-49.88a6,6,0,1,1,10.36,6l-23.62,40.9H181.66l-30-52a6,6,0,0,1,10.36-6L197.2,166.7a6,6,0,0,1-5.18,9Z" transform="translate(-2 -4.33)"/><path class="cls-1" d="M46.67,108.64a6,6,0,0,1-5.17-9L94.82,7.32a6,6,0,0,1,5.18-3h0a6,6,0,0,1,5.18,3l38,65.87a6,6,0,0,1-10.36,6L100,22.27,51.85,105.65A6,6,0,0,1,46.67,108.64Z" transform="translate(-2 -4.33)"/><path class="cls-1" d="M184.6,34.79l-18.94,6.93a1.83,1.83,0,0,0-1.1,2.36,1.89,1.89,0,0,0,.79,1L175.47,51l11.05,6.44a1.84,1.84,0,0,0,2.76-1.84l-2.21-19.26a1.84,1.84,0,0,0-2-1.62A1.58,1.58,0,0,0,184.6,34.79Z" transform="translate(-2 -4.33)"/><path class="cls-1" d="M54.82,152.86h0a6,6,0,0,1-5-2.67l-18-27.06a6,6,0,1,1,10-6.63l13.06,19.59L88.41,85.71a6,6,0,0,1,10,0l23.38,35.07L170.5,47.65a6,6,0,0,1,9.95,6.63l-53.73,80.6a6,6,0,0,1-10,0L93.38,99.81,59.8,150.19A6,6,0,0,1,54.82,152.86Z" transform="translate(-2 -4.33)"/></svg>