<?xml version="1.0" standalone="no"?><!DOCTYPE svg PUBLIC "-//W3C//DTD SVG 1.1//EN" "http://www.w3.org/Graphics/SVG/1.1/DTD/svg11.dtd"><svg t="1564631564192" class="icon" viewBox="0 0 1088 1024" version="1.1" xmlns="http://www.w3.org/2000/svg" p-id="4706" xmlns:xlink="http://www.w3.org/1999/xlink" width="212.5" height="200"><defs><style type="text/css"></style></defs><path d="M1043.712 283.776C1102.08 225.472 1095.552 124.096 1029.056 57.6 962.432-8.896 861.12-15.488 802.88 42.88L727.296 118.592 968.192 359.488 1043.712 283.776 1043.712 283.776Z" p-id="4707" fill="#838384"></path><path d="M413.952 913.664 807.36 520.192 856.768 569.6 958.144 468.096 618.368 128.32 516.928 229.696 566.4 279.168 172.928 672.512 65.28 972.864 113.536 1021.12 413.952 913.664 413.952 913.664ZM634.624 347.392 739.264 452.096 338.496 852.736 172.48 914.176 233.856 748.032 634.624 347.392 634.624 347.392Z" p-id="4708" fill="#838384"></path></svg>