<svg xmlns="http://www.w3.org/2000/svg" width="22" height="22" viewBox="0 0 22 22">
    <g fill="none" fill-rule="evenodd">
        <path fill="#C7C7CC" d="M10.808 21.615C4.889 21.615 0 16.726 0 10.808 0 4.889 4.88 0 10.8 0c5.918 0 10.815 4.89 10.815 10.808s-4.889 10.807-10.807 10.807z"/>
        <path fill="#FFF" d="M10.783 16.137c.514 0 .821-.349.821-.888v-3.645h3.786c.53 0 .896-.282.896-.78 0-.523-.349-.822-.896-.822h-3.786V6.201c0-.54-.307-.897-.821-.897-.507 0-.789.374-.789.897v3.801H6.217c-.556 0-.904.3-.904.822 0 .498.373.78.904.78h3.777v3.645c0 .514.282.888.789.888z"/>
    </g>
</svg>